# xmcd CD database file
#
# Track frame offsets:
#	150
#	16837
#	41870
#	57567
#	76120
#	100990
#	116755
#	135532
#	151822
#	171092
#	190065
#	210215
#	226682
#	244100
#	257380
#	277742
#
# Disc length: 3950 seconds
#
# Revision: 2
# Processed by: cddbd v1.4b41PL1 Copyright (c) Steve Scherf et al.
# Submitted via: Feurio! 1.50.2ß - http://www.feurio.com
#
DISCID=c10f6c10
DTITLE=Various Artist - Warming Up 
DYEAR=1900
DGENRE=
TTITLE0=Farahy - Wake up
TTITLE1=DJ Bobo - There's a party
TTITLE2=Heath Hunter - Revolution in paradise
TTITLE3=Diana Ross - Upside down
TTITLE4=Rainbirds - Blueprint
TTITLE5=Bananarama - Cruel summer
TTITLE6=Pat Benatar - Love is a battlefield
TTITLE7=Fine Young Cannibals - She drives me crazy
TTITLE8=Kool and The Gang - Joanna
TTITLE9=Tears For Fears - Everybody wants to rule the world
TTITLE10=Lighthouse Family - Lifted
TTITLE11=Barclay James Harvest - Life is for living
TTITLE12=Status Quo - What You're proposin'
TTITLE13=Extrabreit - Hart wie Marmelade
TTITLE14=Kool and The Gang - Stone love
TTITLE15=Dexy's Midnight Runners - Come on Eileen
EXTD=
EXTT0=
EXTT1=
EXTT2=
EXTT3=
EXTT4=
EXTT5=
EXTT6=
EXTT7=
EXTT8=
EXTT9=
EXTT10=
EXTT11=
EXTT12=
EXTT13=
EXTT14=
EXTT15=
PLAYORDER=
